<svg xmlns="http://www.w3.org/2000/svg" viewBox="0 0 616.9 619.3"><path d="M122.9 136.5c-.7-15.8.2-38.4-1-57-1.2-18.7-6.1-38.3-13.9-51.7-7.8-13.5-23.2-18.4-31.6-20-8.4-1.6-37.5-2.9-46.3-2-8.9.8-20.2.7-23.9 2-3.7 1.3-4.9 16.9-4.4 19.4.5 2.6.9 18.9-.3 21.4s.8 21.8.8 21.8S.7 81.4.6 85c-.1 3.7.7 38.4.6 43.5-.1 5.1 1.1 22 1.1 22l2.4 48s-.5 20.6-.7 26.2c-.1 5.6-1.1 14.4-.4 18.6s1.8 28.8 1.8 28.8 1.4 13 3.9 13.1c2.5.1 11.8-1.1 11.8-1.1 3.9-.8 16.6 1.8 26.5.7 9.9-1.2 22.9-.5 32.5-1.1s26.5-8.1 33-21.4c6.6-13.4 10.3-37.3 11-54.7.7-17.4-.5-55.3-1.2-71.1zm-39.2 19c-1.2 15.2-.6 42.3-3.1 58.1-2.6 15.7-1.8 22.5-19.7 24.3-17.9 1.8-19.4-3.3-20.6-16.1-1.3-12.7-2.7-22.1-2.8-27.2 0 0-.9-48.6-.7-53.1.1-4.5 2.1-19.1 1.7-25.6-.4-6.5-.3-29.1 0-41.2.3-12.1-1.8-24 2.8-25s24 .1 29.3 2.7C75.9 55.1 81 53.5 81.1 71c.1 17.5 4 30.3 3.8 37.9-.2 7.7 0 31.4-1.2 46.6zM266 133.3c-.7-18.3-.8-35.6-4.1-74s-16.5-44.1-24.1-46.7c-7.6-2.6-21.3-8.5-44.7-8.4s-36.2 4.5-46.1 12c-10 7.5-7.9 36.9-7.9 36.9s-.4 15.5-.3 27.9c.1 12.4-1 83 .5 102.7s3.3 68.4 9.1 80.1c5.8 11.6 28.9 19.4 43.3 22.9 14.4 3.5 31 1.8 44.9-3.5 12.6-4.8 15.7-7.3 20.2-17.6 5.5-12.6 7.3-48.1 7.5-67 .2-19 2.4-46.9 1.7-65.3zm-45.8 99.8c-.6 1.5-11 19.9-25.9 6.1-17.9-16.5-11.3-64.2-11.9-76.3s-1.8-50.6-1.6-57.6c.2-7.1.6-30.5.6-41.3 0 0 .2-21.7 12.3-23.1s25.3 2.3 26.6 16.7c1.3 14.4 3.9 46.5 4.2 77.6.4 31.1-.4 88.1-4.3 97.9zM284.5 40.7s-3.3-33.7.2-36.4 22.3-3 28.7-1.3 10.1-.1 14.2 3.8 13.5 35.1 23.9 62.8c10.4 27.7 39.9 118.6 39.9 118.6s-6-112-6.9-132.4-5.7-53.4.5-54.5 12.4 1.6 19.5 1.1 22-5.4 24.9.2 2.2 57.8 1.1 85.5c-1.2 27.6 3.3 78.4 1.4 98.7-1.9 20.2 0 37.5-.8 55.8s-1 24.6-1.8 32.7-4.7 11.4-24.7 10.7c-20-.8-19-.5-22.9-12.6-3.9-12.1-14.1-32-17.8-46.3-3.8-14.3-18.1-46.3-23.9-60.9-3.2-8.1-10.1-34.5-10.1-34.5s1.4 52.2 3.2 77.4.7 49.3 1.1 57.8c.4 8.5.7 18.7-6.9 18.6-7.6-.1-25.1 2.6-29.8.9-4.7-1.7-8.7-1.6-9.4-25.9s-.9-77.3-.2-90.8-.2-50.4-1.9-67.7c-1.7-17.4-1.4-46.3-1.5-61.3zM135.3 580.7c-14-24.7-8.1-13.8-22.7-46.4s-34-66.4-34-66.4 9.6 0 27.6-6.9c18-6.8 22.1-11.8 26.6-32.6s2-43.2-3.4-63.1-11.1-21.6-27.2-30.6-38.5-4.7-45.9-4.9-52.4-.3-54.8 1.9.6 13.8.1 21.5c-.5 7.6-2.2 29-1.3 46.3.9 17.2 1.9 72.9 1.6 85s-.2 68.3-.5 80.4-.8 29.3-1 35.8.5 11.6 4.9 15.1 23.2.5 23.2.5c5-.8 8.7 2.2 12.4 1.8 3.7-.4 5.3-6.4 5.4-10.1.1-3.7.3-33.1-.1-58.8-.4-25.7-.2-61.5-.2-61.5s3.9 2.1 6.4 4.1c2.5 2 19.5 38.1 21.6 44.3 2.1 6.3 27.7 60.9 30.6 68 2.9 7.1 6.4 14.8 11.5 15 5.1.1 10.5-2.8 10.5-2.8s6.4 1.9 10.1 2c3.7.1 17.2-1.5 17.3-5.7 0-4.1-4.7-7.3-18.7-31.9zM42.9 441.8s2.3-31.5 1.2-43.7c-1.1-12.2-.7-24.3-.9-29.9-.1-5.6.6-7.3 2.5-7.6 1.9-.2 14.1-.2 21.1.6s18.6 5 21.5 11.3c2.9 6.3 4.3 18.7 4.5 31 .2 12.3-4 30.9-17.1 35.6s-32.8 2.7-32.8 2.7zM169.4 368.3s-1.6-20.8-1.9-27.9c-.3-7.1.9-11.6 6.3-11.3 5.4.3 21.8.3 26.6 0s14.2-.2 17.1 5.4c2.8 5.6 3.1 14 .9 22.8-2.2 8.7-.8 13.5.1 17.2.9 3.7-1.4 8.2-8.4 8.7-7 .6-24.3-.6-30.3 0s-12-2.5-11.7-6.8c.3-4.1 2-4.2 1.3-8.1zM170.1 411.6s26.4.6 32.5.7c6.1.2 15.4-.5 15.4 17.3s-.6 24.1.8 38.7c1.4 14.6 0 18.1-.9 29.7-.9 11.6 1.4 44.7 1.1 55.7-.3 11.1-1.1 36.1-1.4 44.5-.3 8.4.6 13.7-8.3 17.6s-33.1-.1-36.8-.8c-3.7-.7-3.6-4.2-3.5-14.9s1-51.9.4-66.8-1.8-54.5-1.1-66.7 1.3-28.5 1.3-36.4c-.1-7.8-3-16.6.5-18.6zM239.5 330.7s-3.3 13.7-3.7 27.5c-.4 13.8-.8 13.4.8 18.8s15 4.1 21.2 4.4c6.2.3 22.6-.6 25.3-.6 2.7.1 9.8-2.6 9.9 4.2.1 6.8-1.8 36.4-1.3 52.2.4 15.8 1.3 55.6-.8 77.3-2.1 21.7-1.1 42.3-.6 55.9.4 13.6-1.5 30.4 1.3 35.9 2.8 5.4 8 9.8 15.1 9.7 7.1-.1 22.2-1.4 24.2-1.3 2.1.1 3.8 1 3.8 1s1.6-24.2 1.1-38.6-.6-30.5.6-51.9-.2-79.4.5-92.9-1.1-49.2 1.3-50c2.4-.8 17.2.8 24.5.7s22.6.5 24.8-2.2c2.1-2.8 1.9-12 2.5-22.2.6-10.1.8-21.2.6-23.9-.2-2.7-3.7-6.2-15.2-5.7s-49.8-1.8-60.7-1.7c-10.9.1-36.4 3.1-46.4 2.5-10-.5-25.5-1.3-28.8.9zM551.8 597.6c-2.2-8.8-9.5-35.6-11.1-45.4s-13.1-47.2-15.3-59.3c-2.2-12.1-10-41.2-11.3-57.9-1.3-16.7-4.1-33.6-8-43.8-3.9-10.2-8.9-37-11.7-46.9-2.8-9.9-7-14.4-16-16.4s-21.4-.4-31-.8c-9.6-.4-22.6-.1-22.6-.1s-8.6 33.1-13.5 59-11.8 67.7-16.2 89.7-6.2 46.5-9.1 62.3c-2.9 15.8-11.9 46.8-12 56.6 0 9.9-2.3 19.5 4.2 21.5s32.4.8 36.4.8c3.9 0 5.1-2 6.5-7 1.4-5.1 7.7-37 8.9-45.5 1.2-8.5 4.5-31.3 6-39.2s1.8-17.8 5.2-20 11-1.4 18.9-1.3c7.9 0 18.3.6 18.3.6s7.2 24.9 10.8 46.6 11.1 43.2 15.3 51.1 5.6 11.6 7.3 12.2c1.7.6 7.9 3.1 10.1 3.1 2.3 0 9.6-2.2 13.5-1.9s13.5 1.4 16.4-2.2c2.8-3.6 2.2-7 0-15.8zm-85.5-135.4c-9.6-1.2-15 .7-19.8.1-4.8-.5-6.5-8.1-5.3-12.4 1.1-4.2 3.5-20.6 4.1-26.8s1.7-26 5.1-31.6c0 0 9.3-1.7 12.4 2.6s4.5 17.8 6.4 30.8c1.9 13 4.4 22 6.4 28.5 1.9 6.6.3 10-9.3 8.8zM615 269.1c-2.3-7.9-18.8-70.7-25-107.7-6.2-37-20-72.2-23.7-92s-7.3-45.5-11.6-57.1c-4.2-11.6-19.5-8.2-34.4-7.1-15 1.1-31-.2-31-.2s-4.2 19-5.1 37.3c-.8 18.3-7.9 55-7.9 55-.8 12.4-4.2 26.5-6.8 41.5-2.5 15-7.1 49.7-9 62.4-2 12.7-9.3 63.2-11.3 71.7s2.8 11.3 6.5 11.9c3.7.6 15.8.7 20.9.5 5.1-.3 11.5 1.4 14.9-1.6 3.4-3 6.3-15.4 6.3-26.1s.8-14.3 2.5-23.9c1.7-9.6 1.4-18.1 2.3-22.9.8-4.8 11.2-2 18-2 6.8 0 29.8.6 32.4.6s5.2 8.4 5.2 13.5 5.2 27.8 8.3 41.1c3.1 13.3 8.9 21.2 8.9 21.2s9.9.3 15 0 16.7-.6 22.3-1.7 4.6-6.5 2.3-14.4zm-65.7-100.9c-.7.8-23.7 1.1-27 0-3.3-1.1-15.4 4.8-13-9 2.3-13.8 6.3-46.3 7-55.6S520 77 520 77s10.4-1.4 11.4 5.1 9.9 43.3 11.9 51.5c1.9 8.1 6.6 33.8 6 34.6z"/></svg>