<svg width="41px" height="35px" viewBox="0 0 41 35" version="1.1" xmlns="http://www.w3.org/2000/svg" xmlns:xlink="http://www.w3.org/1999/xlink">
    <title>Path 3</title>
    <desc>Created with Sketch.</desc>
    <defs></defs>
    <g id="Page-1" stroke="none" stroke-width="1" fill="none" fill-rule="evenodd">
        <g id="Website" transform="translate(-26.000000, -21.000000)" fill="#000000">
            <path d="M29.2214812,28.4357716 C29.2214812,28.4357716 31.3031808,23.421833 35.1840982,22.2859386 C39.0650157,21.1500441 45.4551128,20.4752269 49.4480947,21.5165187 C53.4410765,22.5578106 54.8446433,23.3641431 56.1065272,23.8135055 C57.3684111,24.262868 62.2307202,25.7791622 64.2310792,30.3839665 C66.2314382,34.9887708 67.4970797,39.3729831 66.061905,44.4496953 C64.6267303,49.5264075 58.7847979,52.6993526 55.7884591,53.912388 C52.7921202,55.1254234 45.7610241,55.4563115 44.3019777,55.7458662 C42.8429313,56.035421 41.0751003,56.2389934 38.9173649,55.420725 C36.7596296,54.6024566 36.1612862,54.2515221 34.6885285,53.3604501 C33.2157708,52.4693782 32.1042085,51.5720785 31.7607214,51.2093615 C31.4172344,50.8466444 28.9133596,48.6440392 28.1567597,47.8452218 C27.4001598,47.0464044 25.9437659,43.83942 26.0016768,41.1366145 C26.0595878,38.433809 26.6961661,34.5783104 27.0586621,33.2151929 C27.4211581,31.8520753 29.2214812,28.4357716 29.2214812,28.4357716 Z" id="Path-3"></path>
        </g>
    </g>
</svg>
